<?xml version="1.0" encoding="utf-8"?><svg xmlns="http://www.w3.org/2000/svg" xmlns:xlink="http://www.w3.org/1999/xlink"><symbol viewBox="0 0 60 24" id="arrow-right" xmlns="http://www.w3.org/2000/svg"><g clip-path="url(#aa)" stroke-width="2"><path d="m47.25.48 12 11.52-12 11.52M59.25 12H0"/></g><defs><clipPath id="aa"><path d="M0 0h60v24H0z"/></clipPath></defs></symbol><symbol viewBox="0 0 22 24" id="basket" xmlns="http://www.w3.org/2000/svg"><g clip-path="url(#ba)"><path d="M10.363 18.443a2.046 2.046 0 0 0-2.045 2.042 2.046 2.046 0 0 0 4.09 0 2.046 2.046 0 0 0-2.045-2.042Zm6.134 0a2.046 2.046 0 0 0-2.045 2.042 2.046 2.046 0 0 0 4.089 0 2.046 2.046 0 0 0-2.044-2.042Zm3.978-8.199L7.413 6.891a.614.614 0 0 0-.75.73L8.67 16.4h-.786L5.482 5.895a.613.613 0 0 0-.474-.464l-4.27-.882A.614.614 0 0 0 .489 5.75l3.885.802L6.797 17.15a.613.613 0 0 0 .598.477h12.07a.615.615 0 0 0 .607-.53l.858-6.175a.613.613 0 0 0-.455-.678Zm-8.14 3.91a.613.613 0 0 1-1.227 0v-2.696a.613.613 0 0 1 1.227 0v2.696Zm2.625 0a.613.613 0 0 1-1.227 0v-1.88a.613.613 0 0 1 1.227 0v1.88Zm2.625 0a.613.613 0 0 1-1.227 0v-1.226a.613.613 0 0 1 1.227 0v1.226Z"/></g><path fill-rule="evenodd" clip-rule="evenodd" d="M16.268 4.568a2.996 2.996 0 0 0-1.693-.523c-.627 0-1.21.193-1.693.523-.28-.843-.492-1.752-.492-2.383C12.39.98 13.37 0 14.575 0s2.185.98 2.185 2.185c0 .631-.212 1.54-.492 2.383Zm-4.722 2.274.024.006v-.011l-.024.005Zm4.972 1.217c-1.333-.33-2.766-.681-4.129-1.013a2.185 2.185 0 1 1 4.129 1.013Zm4.436 1.103c-.866-.217-2.155-.538-3.618-.9a2.995 2.995 0 0 0 .243-1.425c.87.18 1.762.45 2.308.765.596.344.969.928 1.067 1.56ZM9.869 6.439c-.36-.086-.706-.167-1.03-.243a2.19 2.19 0 0 1-.376-2.667 2.188 2.188 0 0 1 3.147-.7c.098.738.338 1.599.61 2.353a3.01 3.01 0 0 0-.449.774c-.628.113-1.305.278-1.902.483Zm10.124.075a3.43 3.43 0 0 1-.217.114c-.696-.295-1.587-.526-2.397-.672a3.01 3.01 0 0 0-.449-.774c.262-.727.494-1.553.599-2.273.095-.067.189-.128.278-.18a2.188 2.188 0 0 1 2.986.8 2.188 2.188 0 0 1-.8 2.985Z"/><defs><clipPath id="ba"><path transform="translate(0 3.064)" d="M0 0h20.936v20.936H0z"/></clipPath></defs></symbol><symbol viewBox="0 0 344.96 344.96" id="check" xmlns="http://www.w3.org/2000/svg"><g data-name="Слой 2"><path class="ccls-1" d="m321.85 86.24-40-23.11-23.1-40H212.5L172.48 0l-40 23.11H86.24l-23.11 40-40 23.1v46.21L0 172.48l23.11 40v46.21l40 23.11 23.11 40h46.21l40 23.1 40-23.11h46.21l23.11-40 40-23.11V212.5l23.11-40-23.11-40V86.24ZM156.91 243.07a16.79 16.79 0 0 1-23.34 0l-50.45-50.44a16.19 16.19 0 0 1 0-22.89l13.35-13.35a16.19 16.19 0 0 1 22.89 0l25.87 25.87 80.34-80.35a16.19 16.19 0 0 1 22.89 0l13.35 13.35a16.19 16.19 0 0 1 0 22.89Z" data-name="Capa 1"/></g></symbol><symbol viewBox="0 0 25 24" id="chevron-down" xmlns="http://www.w3.org/2000/svg"><path fill-rule="evenodd" clip-rule="evenodd" d="M12.5 16a.993.993 0 0 1-.64-.232l-6-5a1 1 0 1 1 1.28-1.536l5.37 4.476 5.363-4.315a1 1 0 0 1 1.254 1.558l-6 4.828A1 1 0 0 1 12.5 16Z"/></symbol><symbol viewBox="0 0 24 24" id="fb" xmlns="http://www.w3.org/2000/svg"><path d="M13.397 20.997v-8.196h2.765l.411-3.209h-3.176V7.548c0-.926.258-1.56 1.587-1.56h1.684v-2.86A22.108 22.108 0 0 0 14.201 3c-2.444 0-4.122 1.492-4.122 4.231v2.355H7.332v3.21h2.753v8.201h3.312Z"/></symbol><symbol viewBox="0 0 24 24" id="instagram" xmlns="http://www.w3.org/2000/svg"><path d="M11.999 7.377a4.624 4.624 0 1 0 0 9.248 4.624 4.624 0 0 0 0-9.248Zm0 7.627a3.004 3.004 0 1 1 0-6.008 3.004 3.004 0 0 1 0 6.008Zm4.807-6.719a1.078 1.078 0 1 0 0-2.156 1.078 1.078 0 0 0 0 2.156Z"/><path d="M20.533 6.11A4.605 4.605 0 0 0 17.9 3.48a6.607 6.607 0 0 0-2.186-.42c-.963-.042-1.268-.054-3.71-.054s-2.755 0-3.71.054a6.554 6.554 0 0 0-2.184.42 4.6 4.6 0 0 0-2.633 2.63 6.585 6.585 0 0 0-.419 2.186c-.043.962-.056 1.267-.056 3.71 0 2.442 0 2.753.056 3.71.015.748.156 1.486.419 2.187a4.61 4.61 0 0 0 2.634 2.632 6.583 6.583 0 0 0 2.185.45c.963.042 1.268.055 3.71.055s2.755 0 3.71-.055a6.616 6.616 0 0 0 2.186-.42 4.613 4.613 0 0 0 2.633-2.632c.263-.7.404-1.438.419-2.186.043-.962.056-1.267.056-3.71s0-2.753-.056-3.71a6.583 6.583 0 0 0-.421-2.217Zm-1.218 9.533a5.046 5.046 0 0 1-.311 1.688 2.987 2.987 0 0 1-1.712 1.71c-.535.2-1.1.305-1.67.312-.95.044-1.218.055-3.654.055-2.438 0-2.687 0-3.655-.055a4.961 4.961 0 0 1-1.67-.311 2.984 2.984 0 0 1-1.718-1.711 5.08 5.08 0 0 1-.311-1.67c-.043-.95-.053-1.217-.053-3.653 0-2.437 0-2.686.053-3.655a5.038 5.038 0 0 1 .311-1.687c.305-.79.93-1.41 1.719-1.712a5.01 5.01 0 0 1 1.669-.311c.95-.043 1.218-.055 3.655-.055s2.687 0 3.654.055a4.96 4.96 0 0 1 1.67.31 2.99 2.99 0 0 1 1.712 1.713 5.06 5.06 0 0 1 .311 1.669c.043.95.054 1.218.054 3.655 0 2.436 0 2.698-.043 3.654h-.011v-.001Z"/></symbol><symbol viewBox="0 0 44 44" id="odnoklassniki" xmlns="http://www.w3.org/2000/svg"><g clip-path="url(#ga)"><path d="M22 42.9c11.542 0 20.9-9.358 20.9-20.9 0-11.543-9.358-20.9-20.9-20.9C10.457 1.1 1.1 10.457 1.1 22c0 11.542 9.357 20.9 20.9 20.9Z"/><path fill-rule="evenodd" clip-rule="evenodd" d="M23.982 26.523a9.392 9.392 0 0 0 2.846-1.138 1.359 1.359 0 0 0 .45-1.91 1.467 1.467 0 0 0-1.98-.436 6.412 6.412 0 0 1-6.598 0 1.465 1.465 0 0 0-1.98.435 1.358 1.358 0 0 0 .45 1.911 9.392 9.392 0 0 0 2.845 1.138l-2.74 2.645a1.352 1.352 0 0 0 0 1.96 1.46 1.46 0 0 0 1.017.405c.366 0 .735-.134 1.016-.404l2.692-2.6 2.692 2.6a1.47 1.47 0 0 0 2.03 0 1.35 1.35 0 0 0 0-1.961l-2.74-2.645Zm2.906-8.591c0 2.607-2.197 4.73-4.9 4.73-2.703 0-4.902-2.123-4.902-4.73 0-2.611 2.2-4.732 4.902-4.732 2.701 0 4.9 2.123 4.9 4.732Zm-2.875 0c0-1.081-.91-1.958-2.03-1.958-1.117 0-2.028.877-2.028 1.958 0 1.08.91 1.958 2.028 1.958 1.12 0 2.03-.88 2.03-1.958Z"/></g><defs><clipPath id="ga"><path d="M0 0h44v44H0z"/></clipPath></defs></symbol><symbol viewBox="0 0 44 44" id="telegram" xmlns="http://www.w3.org/2000/svg"><g clip-path="url(#ha)"><path d="M22 42.9c11.542 0 20.9-9.358 20.9-20.9 0-11.543-9.358-20.9-20.9-20.9C10.457 1.1 1.1 10.457 1.1 22c0 11.542 9.357 20.9 20.9 20.9Z"/><path d="m19.633 24.863-.364 5.026c.52 0 .746-.22 1.016-.483l2.441-2.291 5.059 3.637c.927.508 1.581.24 1.831-.838l3.32-15.275h.001c.295-1.347-.495-1.873-1.4-1.543l-19.516 7.336c-1.332.507-1.311 1.236-.226 1.567l4.99 1.523 11.59-7.12c.545-.354 1.04-.158.633.197l-9.375 8.264Z"/></g><defs><clipPath id="ha"><path d="M0 0h44v44H0z"/></clipPath></defs></symbol><symbol viewBox="0 0 44 44" id="viber" xmlns="http://www.w3.org/2000/svg"><g clip-path="url(#ia)"><path d="M22 42.9c11.542 0 20.9-9.358 20.9-20.9 0-11.543-9.358-20.9-20.9-20.9C10.457 1.1 1.1 10.457 1.1 22c0 11.542 9.357 20.9 20.9 20.9Z"/><path d="M24.222 11h-4.444C15.5 11 12 14.464 12 18.697v3.298c0 2.97 1.75 5.69 4.444 6.955v3.683c0 .33.417.495.64.248l3.222-3.189h3.916C28.5 29.692 32 26.23 32 21.995v-3.298C32 14.464 28.5 11 24.222 11Zm2.917 14.431L26 26.532c-1.194 1.155-4.278-.165-7-2.914-2.722-2.749-3.917-5.827-2.778-6.982l1.111-1.1c.417-.412 1.111-.384 1.584.028l1.61 1.65c.584.577.334 1.566-.416 1.786-.528.165-.889.742-.722 1.265.278 1.21 1.833 2.748 3 3.05.528.11 1.111-.164 1.305-.686.25-.742 1.25-.962 1.806-.385l1.611 1.65c.445.384.445 1.071.028 1.538ZM23 16.224c-.111 0-.222 0-.333.027-.195.028-.39-.137-.417-.33-.028-.192.139-.384.333-.412.14-.027.278-.027.417-.027 2.028 0 3.694 1.649 3.694 3.656 0 .137 0 .274-.027.412-.028.192-.223.357-.417.33-.194-.028-.361-.22-.333-.413 0-.11.027-.22.027-.33.028-1.594-1.305-2.913-2.944-2.913Zm2.222 2.941a.366.366 0 0 1-.36.357.366.366 0 0 1-.362-.357c0-.797-.667-1.457-1.472-1.457a.366.366 0 0 1-.361-.357c0-.193.166-.358.36-.358 1.195-.027 2.195.963 2.195 2.172Zm2.834 1.182a.39.39 0 0 1-.473.275.353.353 0 0 1-.25-.44c.084-.33.111-.66.111-1.017 0-2.419-2-4.398-4.444-4.398h-.333c-.195 0-.39-.137-.39-.33 0-.192.14-.385.334-.385.139 0 .278-.027.389-.027 2.861 0 5.194 2.309 5.194 5.14 0 .385-.055.797-.138 1.182Z"/></g><defs><clipPath id="ia"><path d="M0 0h44v44H0z"/></clipPath></defs></symbol><symbol viewBox="0 0 24 24" id="vk" xmlns="http://www.w3.org/2000/svg"><path d="M21.579 6.855c.14-.465 0-.806-.662-.806h-2.193c-.558 0-.813.295-.953.619 0 0-1.115 2.719-2.695 4.482-.51.513-.743.675-1.021.675-.139 0-.341-.162-.341-.627V6.855c0-.558-.161-.806-.626-.806H9.642c-.348 0-.558.258-.558.504 0 .528.79.65.871 2.138v3.228c0 .707-.127.836-.407.836-.743 0-2.551-2.73-3.624-5.853-.209-.607-.42-.852-.98-.852H2.752c-.627 0-.752.295-.752.619 0 .582.743 3.462 3.461 7.27 1.812 2.602 4.363 4.012 6.687 4.012 1.393 0 1.565-.313 1.565-.853v-1.966c0-.626.133-.752.574-.752.324 0 .882.164 2.183 1.417 1.486 1.486 1.732 2.153 2.567 2.153h2.192c.626 0 .939-.313.759-.931-.197-.615-.907-1.51-1.849-2.57-.512-.603-1.277-1.253-1.51-1.578-.325-.42-.231-.604 0-.976.001 0 2.672-3.761 2.95-5.04Z"/></symbol><symbol viewBox="0 0 44 44" id="vkontakte" xmlns="http://www.w3.org/2000/svg"><g clip-path="url(#ka)"><path d="M22 42.9c11.542 0 20.9-9.358 20.9-20.9 0-11.543-9.358-20.9-20.9-20.9C10.457 1.1 1.1 10.457 1.1 22c0 11.542 9.357 20.9 20.9 20.9Z"/><path fill-rule="evenodd" clip-rule="evenodd" d="M22.972 28.64s.358-.038.54-.231c.168-.176.161-.51.161-.51s-.02-1.558.716-1.788c.726-.226 1.659 1.506 2.649 2.173.748.503 1.315.393 1.315.393l2.645-.036s1.383-.084.727-1.15c-.054-.088-.383-.792-1.965-2.234-1.66-1.51-1.438-1.266.56-3.88 1.216-1.59 1.701-2.562 1.55-2.977-.145-.397-1.04-.293-1.04-.293l-2.977.019s-.22-.03-.384.066c-.16.094-.264.314-.264.314s-.47 1.232-1.099 2.28c-1.326 2.208-1.855 2.325-2.072 2.187-.505-.32-.378-1.284-.378-1.97 0-2.14.33-3.035-.644-3.266-.323-.076-.562-.126-1.39-.135-1.063-.011-1.962.003-2.47.248-.338.162-.602.525-.44.547.196.025.642.118.878.433.305.408.293 1.323.293 1.323s.176 2.52-.409 2.834c-.4.214-.95-.225-2.133-2.23a18.48 18.48 0 0 1-1.063-2.16s-.088-.213-.246-.327c-.19-.138-.456-.18-.456-.18l-2.83.017s-.425.012-.58.194c-.138.16-.01.494-.01.494s2.214 5.086 4.722 7.65c2.3 2.35 4.91 2.196 4.91 2.196h1.184Z"/></g><defs><clipPath id="ka"><path d="M0 0h44v44H0z"/></clipPath></defs></symbol><symbol viewBox="0 0 44 44" id="whatsapp" xmlns="http://www.w3.org/2000/svg"><g clip-path="url(#la)"><path d="M22 42.9c11.542 0 20.9-9.358 20.9-20.9 0-11.543-9.358-20.9-20.9-20.9C10.457 1.1 1.1 10.457 1.1 22c0 11.542 9.357 20.9 20.9 20.9Z"/><path d="M22.003 12h-.006C16.484 12 12 16.485 12 22c0 2.188.705 4.215 1.904 5.861l-1.246 3.715 3.843-1.229A9.913 9.913 0 0 0 22.003 32C27.516 32 32 27.514 32 22s-4.484-10-9.997-10Zm5.818 14.121c-.241.681-1.199 1.247-1.962 1.412-.523.11-1.205.2-3.503-.753-2.939-1.218-4.831-4.204-4.979-4.398-.14-.193-1.187-1.58-1.187-3.016 0-1.435.729-2.133 1.022-2.433.242-.247.64-.36 1.023-.36.124 0 .235.007.335.012.294.012.441.03.635.494.241.581.829 2.016.899 2.163.071.148.142.348.042.542-.094.2-.176.289-.323.459-.148.17-.288.3-.436.482-.134.159-.287.329-.117.622.17.288.758 1.247 1.622 2.017 1.117.994 2.022 1.311 2.346 1.446.24.1.528.076.704-.111.224-.242.5-.642.782-1.035.2-.283.452-.318.717-.218.27.094 1.699.8 1.993.946.293.148.487.218.558.342.07.123.07.705-.17 1.387Z"/></g><defs><clipPath id="la"><path d="M0 0h44v44H0z"/></clipPath></defs></symbol></svg>