<?xml version="1.0" encoding="utf-8"?><svg xmlns="http://www.w3.org/2000/svg" xmlns:xlink="http://www.w3.org/1999/xlink"><symbol fill="none" viewBox="0 0 24 24" id="developer" xmlns="http://www.w3.org/2000/svg"><path d="M12 24c6.627 0 12-5.373 12-12S18.627 0 12 0 0 5.373 0 12s5.373 12 12 12Z" fill="#A62F3C"/><path fill-rule="evenodd" clip-rule="evenodd" d="M14.347 6.037H5.04v8.547h3.68V9.416h5.627V6.037Zm3.68 3.38v1.639h-3.68V6.037h.3a3.379 3.379 0 0 1 3.38 3.38ZM8.72 17.962h-.3a3.379 3.379 0 0 1-3.38-3.379h5.573v3.379H8.72Z" fill="#fff"/><path fill-rule="evenodd" clip-rule="evenodd" d="M14.347 11.056h-3.733v3.528h1.828l2.203 3.378H19l-4.653-6.906Z" fill="#fff"/></symbol><symbol fill="none" viewBox="0 0 44 44" id="odnoklassniki" xmlns="http://www.w3.org/2000/svg"><g clip-path="url(#ba)"><path d="M22 42.9c11.542 0 20.9-9.358 20.9-20.9 0-11.543-9.358-20.9-20.9-20.9C10.457 1.1 1.1 10.457 1.1 22c0 11.542 9.357 20.9 20.9 20.9Z" stroke="#E7CF87" stroke-width="1.5"/><path fill-rule="evenodd" clip-rule="evenodd" d="M23.982 26.523a9.392 9.392 0 0 0 2.846-1.138 1.359 1.359 0 0 0 .45-1.91 1.467 1.467 0 0 0-1.98-.436 6.412 6.412 0 0 1-6.598 0 1.465 1.465 0 0 0-1.98.435 1.358 1.358 0 0 0 .45 1.911 9.392 9.392 0 0 0 2.845 1.138l-2.74 2.645a1.352 1.352 0 0 0 0 1.96 1.46 1.46 0 0 0 1.017.405c.366 0 .735-.134 1.016-.404l2.692-2.6 2.692 2.6a1.47 1.47 0 0 0 2.03 0 1.35 1.35 0 0 0 0-1.961l-2.74-2.645Zm2.906-8.591c0 2.607-2.197 4.73-4.9 4.73-2.703 0-4.902-2.123-4.902-4.73 0-2.611 2.2-4.732 4.902-4.732 2.701 0 4.9 2.123 4.9 4.732Zm-2.875 0c0-1.081-.91-1.958-2.03-1.958-1.117 0-2.028.877-2.028 1.958 0 1.08.91 1.958 2.028 1.958 1.12 0 2.03-.88 2.03-1.958Z" fill="#E7CF87"/></g><defs><clipPath id="ba"><path fill="#fff" d="M0 0h44v44H0z"/></clipPath></defs></symbol><symbol fill="none" viewBox="0 0 44 44" id="telegram" xmlns="http://www.w3.org/2000/svg"><g clip-path="url(#ca)"><path d="M22 42.9c11.542 0 20.9-9.358 20.9-20.9 0-11.543-9.358-20.9-20.9-20.9C10.457 1.1 1.1 10.457 1.1 22c0 11.542 9.357 20.9 20.9 20.9Z" stroke="#E7CF87" stroke-width="1.5"/><path d="m19.633 24.863-.364 5.026c.52 0 .746-.22 1.016-.483l2.441-2.291 5.059 3.637c.927.508 1.581.24 1.831-.838l3.32-15.275h.001c.295-1.347-.495-1.873-1.4-1.543l-19.516 7.336c-1.332.507-1.311 1.236-.226 1.567l4.99 1.523 11.59-7.12c.545-.354 1.04-.158.633.197l-9.375 8.264Z" fill="#E7CF87"/></g><defs><clipPath id="ca"><path fill="#fff" d="M0 0h44v44H0z"/></clipPath></defs></symbol><symbol fill="none" viewBox="0 0 44 44" id="viber" xmlns="http://www.w3.org/2000/svg"><g clip-path="url(#da)"><path d="M22 42.9c11.542 0 20.9-9.358 20.9-20.9 0-11.543-9.358-20.9-20.9-20.9C10.457 1.1 1.1 10.457 1.1 22c0 11.542 9.357 20.9 20.9 20.9Z" stroke="#E7CF87" stroke-width="1.5"/><path d="M24.222 11h-4.444C15.5 11 12 14.464 12 18.697v3.298c0 2.97 1.75 5.69 4.444 6.955v3.683c0 .33.417.495.64.248l3.222-3.189h3.916C28.5 29.692 32 26.23 32 21.995v-3.298C32 14.464 28.5 11 24.222 11Zm2.917 14.431L26 26.532c-1.194 1.155-4.278-.165-7-2.914-2.722-2.749-3.917-5.827-2.778-6.982l1.111-1.1c.417-.412 1.111-.384 1.584.028l1.61 1.65c.584.577.334 1.566-.416 1.786-.528.165-.889.742-.722 1.265.278 1.21 1.833 2.748 3 3.05.528.11 1.111-.164 1.305-.686.25-.742 1.25-.962 1.806-.385l1.611 1.65c.445.384.445 1.071.028 1.538ZM23 16.224c-.111 0-.222 0-.333.027-.195.028-.39-.137-.417-.33-.028-.192.139-.384.333-.412.14-.027.278-.027.417-.027 2.028 0 3.694 1.649 3.694 3.656 0 .137 0 .274-.027.412-.028.192-.223.357-.417.33-.194-.028-.361-.22-.333-.413 0-.11.027-.22.027-.33.028-1.594-1.305-2.913-2.944-2.913Zm2.222 2.941a.366.366 0 0 1-.36.357.366.366 0 0 1-.362-.357c0-.797-.667-1.457-1.472-1.457a.366.366 0 0 1-.361-.357c0-.193.166-.358.36-.358 1.195-.027 2.195.963 2.195 2.172Zm2.834 1.182a.39.39 0 0 1-.473.275.353.353 0 0 1-.25-.44c.084-.33.111-.66.111-1.017 0-2.419-2-4.398-4.444-4.398h-.333c-.195 0-.39-.137-.39-.33 0-.192.14-.385.334-.385.139 0 .278-.027.389-.027 2.861 0 5.194 2.309 5.194 5.14 0 .385-.055.797-.138 1.182Z" fill="#E7CF87"/></g><defs><clipPath id="da"><path fill="#fff" d="M0 0h44v44H0z"/></clipPath></defs></symbol><symbol fill="none" viewBox="0 0 44 44" id="vkontakte" xmlns="http://www.w3.org/2000/svg"><g clip-path="url(#ea)"><path d="M22 42.9c11.542 0 20.9-9.358 20.9-20.9 0-11.543-9.358-20.9-20.9-20.9C10.457 1.1 1.1 10.457 1.1 22c0 11.542 9.357 20.9 20.9 20.9Z" stroke="#E7CF87" stroke-width="1.5"/><path fill-rule="evenodd" clip-rule="evenodd" d="M22.972 28.64s.358-.038.54-.231c.168-.176.161-.51.161-.51s-.02-1.558.716-1.788c.726-.226 1.659 1.506 2.649 2.173.748.503 1.315.393 1.315.393l2.645-.036s1.383-.084.727-1.15c-.054-.088-.383-.792-1.965-2.234-1.66-1.51-1.438-1.266.56-3.88 1.216-1.59 1.701-2.562 1.55-2.977-.145-.397-1.04-.293-1.04-.293l-2.977.019s-.22-.03-.384.066c-.16.094-.264.314-.264.314s-.47 1.232-1.099 2.28c-1.326 2.208-1.855 2.325-2.072 2.187-.505-.32-.378-1.284-.378-1.97 0-2.14.33-3.035-.644-3.266-.323-.076-.562-.126-1.39-.135-1.063-.011-1.962.003-2.47.248-.338.162-.602.525-.44.547.196.025.642.118.878.433.305.408.293 1.323.293 1.323s.176 2.52-.409 2.834c-.4.214-.95-.225-2.133-2.23a18.48 18.48 0 0 1-1.063-2.16s-.088-.213-.246-.327c-.19-.138-.456-.18-.456-.18l-2.83.017s-.425.012-.58.194c-.138.16-.01.494-.01.494s2.214 5.086 4.722 7.65c2.3 2.35 4.91 2.196 4.91 2.196h1.184Z" fill="#E7CF87"/></g><defs><clipPath id="ea"><path fill="#fff" d="M0 0h44v44H0z"/></clipPath></defs></symbol><symbol fill="none" viewBox="0 0 44 44" id="whatsapp" xmlns="http://www.w3.org/2000/svg"><g clip-path="url(#fa)"><path d="M22 42.9c11.542 0 20.9-9.358 20.9-20.9 0-11.543-9.358-20.9-20.9-20.9C10.457 1.1 1.1 10.457 1.1 22c0 11.542 9.357 20.9 20.9 20.9Z" stroke="#E7CF87" stroke-width="1.5"/><path d="M22.003 12h-.006C16.484 12 12 16.485 12 22c0 2.188.705 4.215 1.904 5.861l-1.246 3.715 3.843-1.229A9.913 9.913 0 0 0 22.003 32C27.516 32 32 27.514 32 22s-4.484-10-9.997-10Zm5.818 14.121c-.241.681-1.199 1.247-1.962 1.412-.523.11-1.205.2-3.503-.753-2.939-1.218-4.831-4.204-4.979-4.398-.14-.193-1.187-1.58-1.187-3.016 0-1.435.729-2.133 1.022-2.433.242-.247.64-.36 1.023-.36.124 0 .235.007.335.012.294.012.441.03.635.494.241.581.829 2.016.899 2.163.071.148.142.348.042.542-.094.2-.176.289-.323.459-.148.17-.288.3-.436.482-.134.159-.287.329-.117.622.17.288.758 1.247 1.622 2.017 1.117.994 2.022 1.311 2.346 1.446.24.1.528.076.704-.111.224-.242.5-.642.782-1.035.2-.283.452-.318.717-.218.27.094 1.699.8 1.993.946.293.148.487.218.558.342.07.123.07.705-.17 1.387Z" fill="#E7CF87"/></g><defs><clipPath id="fa"><path fill="#fff" d="M0 0h44v44H0z"/></clipPath></defs></symbol></svg>