<svg width="24" height="24" viewBox="0 0 24 24" fill="none" xmlns="http://www.w3.org/2000/svg">
<path d="M12 24C18.6274 24 24 18.6274 24 12C24 5.37258 18.6274 0 12 0C5.37258 0 0 5.37258 0 12C0 18.6274 5.37258 24 12 24Z" fill="#A62F3C"/>
<path fill-rule="evenodd" clip-rule="evenodd" d="M14.3468 6.03723H5.04056V9.4161V9.41611V14.5838H8.71979V9.41611H14.3468V6.03723ZM18.0262 9.41611V11.0559H14.347V9.41611V9.4161V6.03723H14.6473C16.5135 6.03723 18.0262 7.55 18.0262 9.4161V9.41611ZM8.71963 17.963H8.41929C6.55318 17.963 5.04041 16.4502 5.04041 14.5841H8.71963L10.6134 14.5841L10.6134 17.963H8.71963Z" fill="white"/>
<path fill-rule="evenodd" clip-rule="evenodd" d="M14.3471 11.0557H10.6138V14.5836H12.4423L14.6447 17.9625H19.0002L14.3471 11.0557Z" fill="white"/>
</svg>
