<svg width="44" height="44" viewBox="0 0 44 44" fill="none" xmlns="http://www.w3.org/2000/svg">
<g clip-path="url(#clip0_43_713)">
<path d="M21.9996 42.8996C33.5424 42.8996 42.8996 33.5424 42.8996 21.9996C42.8996 10.4569 33.5424 1.09961 21.9996 1.09961C10.4569 1.09961 1.09961 10.4569 1.09961 21.9996C1.09961 33.5424 10.4569 42.8996 21.9996 42.8996Z" stroke="#E7CF87" stroke-width="1.5"/>
<path fill-rule="evenodd" clip-rule="evenodd" d="M23.9824 26.5234C24.9798 26.3034 25.9419 25.9221 26.8278 25.3853C26.9859 25.2923 27.1236 25.1682 27.2325 25.0205C27.3414 24.8728 27.4193 24.7046 27.4613 24.526C27.5034 24.3474 27.5089 24.1621 27.4774 23.9813C27.4459 23.8005 27.3781 23.628 27.278 23.4742C27.0676 23.1606 26.7442 22.9404 26.3754 22.8592C26.0066 22.7781 25.6207 22.8423 25.298 23.0386C24.3014 23.6366 23.161 23.9525 21.9988 23.9525C20.8365 23.9525 19.6961 23.6366 18.6995 23.0386C18.377 22.842 17.9909 22.7775 17.622 22.8587C17.2531 22.9398 16.9297 23.1604 16.7195 23.4742C16.6195 23.628 16.5517 23.8005 16.5202 23.9813C16.4887 24.1621 16.4941 24.3474 16.5362 24.526C16.5783 24.7046 16.6561 24.8728 16.765 25.0205C16.8739 25.1682 17.0116 25.2923 17.1698 25.3853C18.0556 25.9221 19.0178 26.3034 20.0151 26.5234L17.2754 29.1678C17.1424 29.2941 17.0365 29.4462 16.9641 29.6148C16.8917 29.7833 16.8544 29.9648 16.8544 30.1483C16.8544 30.3317 16.8917 30.5132 16.9641 30.6818C17.0365 30.8503 17.1424 31.0024 17.2754 31.1287C17.5489 31.3904 17.9133 31.5355 18.2918 31.5335C18.6584 31.5335 19.0266 31.3986 19.3082 31.1287L21.9995 28.5298L24.6923 31.1287C24.9659 31.3895 25.3293 31.5349 25.7072 31.5349C26.0852 31.5349 26.4486 31.3895 26.7222 31.1287C26.8554 31.0025 26.9614 30.8505 27.0339 30.6819C27.1064 30.5133 27.1438 30.3318 27.1438 30.1483C27.1438 29.9648 27.1064 29.7832 27.0339 29.6146C26.9614 29.4461 26.8554 29.294 26.7222 29.1678L23.9824 26.5234ZM26.8879 17.9317C26.8879 20.5394 24.6908 22.6617 21.9878 22.6617C19.2847 22.6617 17.0862 20.5394 17.0862 17.9317C17.0862 15.321 19.2862 13.2002 21.9878 13.2002C24.6894 13.2002 26.8879 15.3225 26.8879 17.9317ZM24.0132 17.9317C24.0132 16.8507 23.1039 15.9737 21.9834 15.9737C20.8658 15.9737 19.955 16.8507 19.955 17.9317C19.955 19.0111 20.8643 19.8897 21.9834 19.8897C23.1024 19.8897 24.0132 19.0097 24.0132 17.9317Z" fill="#E7CF87"/>
</g>
<defs>
<clipPath id="clip0_43_713">
<rect width="44" height="44" fill="white"/>
</clipPath>
</defs>
</svg>
