<svg width="44" height="44" viewBox="0 0 44 44" fill="none" xmlns="http://www.w3.org/2000/svg">
<g id="telegram" clip-path="url(#clip0_43_729)">
<path id="Vector" d="M21.9996 42.8996C33.5424 42.8996 42.8996 33.5424 42.8996 21.9996C42.8996 10.4569 33.5424 1.09961 21.9996 1.09961C10.4569 1.09961 1.09961 10.4569 1.09961 21.9996C1.09961 33.5424 10.4569 42.8996 21.9996 42.8996Z" stroke="#E7CF87" stroke-width="1.5"/>
<path id="Vector_2" d="M19.6326 24.8632L19.2687 29.8888C19.7894 29.8888 20.0149 29.6692 20.2853 29.4055L22.7264 27.115L27.7847 30.7519C28.7124 31.2595 29.366 30.9922 29.6163 29.914L32.9365 14.6393L32.9374 14.6384C33.2317 13.292 32.4415 12.7655 31.5377 13.0958L12.0214 20.4316C10.6894 20.9392 10.7096 21.6682 11.7949 21.9985L16.7845 23.5222L28.3742 16.4023C28.9196 16.0477 29.4155 16.2439 29.0076 16.5985L19.6326 24.8632Z" fill="#E7CF87"/>
</g>
<defs>
<clipPath id="clip0_43_729">
<rect width="44" height="44" fill="white"/>
</clipPath>
</defs>
</svg>
