<svg width="44" height="44" viewBox="0 0 44 44" fill="none" xmlns="http://www.w3.org/2000/svg">
<g id="viber" clip-path="url(#clip0_43_726)">
<path id="Vector" d="M21.9996 42.8996C33.5424 42.8996 42.8996 33.5424 42.8996 21.9996C42.8996 10.4569 33.5424 1.09961 21.9996 1.09961C10.4569 1.09961 1.09961 10.4569 1.09961 21.9996C1.09961 33.5424 10.4569 42.8996 21.9996 42.8996Z" stroke="#E7CF87" stroke-width="1.5"/>
<path id="Vector_2" d="M24.2222 11H19.7778C15.5 11 12 14.4636 12 18.6968V21.9954C12 24.9642 13.75 27.6855 16.4444 28.95V32.6335C16.4444 32.9633 16.8611 33.1283 17.0833 32.8809L20.3056 29.6922H24.2222C28.5 29.6922 32 26.2287 32 21.9954V18.6968C32 14.4636 28.5 11 24.2222 11ZM27.1389 25.4315L26 26.531C24.8056 27.6855 21.7222 26.3661 19 23.6172C16.2778 20.8684 15.0833 17.7897 16.2222 16.6352L17.3333 15.5356C17.75 15.1233 18.4444 15.1508 18.9167 15.5631L20.5278 17.2124C21.1111 17.7897 20.8611 18.7793 20.1111 18.9992C19.5833 19.1641 19.2222 19.7414 19.3889 20.2636C19.6667 21.4731 21.2222 23.0125 22.3889 23.3149C22.9167 23.4248 23.5 23.1499 23.6944 22.6277C23.9444 21.8855 24.9444 21.6656 25.5 22.2428L27.1111 23.8921C27.5556 24.277 27.5556 24.9642 27.1389 25.4315ZM23 16.2228C22.8889 16.2228 22.7778 16.2228 22.6667 16.2503C22.4722 16.2778 22.2778 16.1129 22.25 15.9204C22.2222 15.728 22.3889 15.5356 22.5833 15.5081C22.7222 15.4806 22.8611 15.4806 23 15.4806C25.0278 15.4806 26.6944 17.1299 26.6944 19.1366C26.6944 19.2741 26.6944 19.4115 26.6667 19.5489C26.6389 19.7414 26.4444 19.9063 26.25 19.8788C26.0556 19.8513 25.8889 19.6589 25.9167 19.4665C25.9167 19.3565 25.9444 19.2466 25.9444 19.1366C25.9722 17.5423 24.6389 16.2228 23 16.2228ZM25.2222 19.1641C25.2222 19.3565 25.0556 19.5215 24.8611 19.5215C24.6667 19.5215 24.5 19.3565 24.5 19.1641C24.5 18.3669 23.8333 17.7072 23.0278 17.7072C22.8333 17.7072 22.6667 17.5423 22.6667 17.3499C22.6667 17.1574 22.8333 16.9925 23.0278 16.9925C24.2222 16.965 25.2222 17.9546 25.2222 19.1641ZM28.0556 20.3461C28 20.5385 27.8056 20.676 27.5833 20.621C27.3889 20.566 27.2778 20.3736 27.3333 20.1812C27.4167 19.8513 27.4444 19.5215 27.4444 19.1641C27.4444 16.7451 25.4444 14.7659 23 14.7659H22.6667C22.4722 14.7659 22.2778 14.6285 22.2778 14.4361C22.2778 14.2436 22.4167 14.0512 22.6111 14.0512C22.75 14.0512 22.8889 14.0237 23 14.0237C25.8611 14.0237 28.1944 16.3328 28.1944 19.1641C28.1944 19.5489 28.1389 19.9613 28.0556 20.3461Z" fill="#E7CF87"/>
</g>
<defs>
<clipPath id="clip0_43_726">
<rect width="44" height="44" fill="white"/>
</clipPath>
</defs>
</svg>
