<svg width="44" height="44" viewBox="0 0 44 44" fill="none" xmlns="http://www.w3.org/2000/svg">
<g id="vkontakte" clip-path="url(#clip0_43_732)">
<path id="Vector" d="M21.9996 42.8996C33.5424 42.8996 42.8996 33.5424 42.8996 21.9996C42.8996 10.4569 33.5424 1.09961 21.9996 1.09961C10.4569 1.09961 1.09961 10.4569 1.09961 21.9996C1.09961 33.5424 10.4569 42.8996 21.9996 42.8996Z" stroke="#E7CF87" stroke-width="1.5"/>
<path id="Vector_2" fill-rule="evenodd" clip-rule="evenodd" d="M22.972 28.6406C22.972 28.6406 23.3299 28.6024 23.5118 28.4088C23.6804 28.2328 23.6731 27.8984 23.6731 27.8984C23.6731 27.8984 23.6526 26.3408 24.3888 26.1106C25.1148 25.8847 26.0476 27.6168 27.0376 28.2842C27.7856 28.7872 28.3532 28.6772 28.3532 28.6772L30.9976 28.6406C30.9976 28.6406 32.3807 28.557 31.7251 27.4907C31.6708 27.4027 31.3423 26.6987 29.7598 25.257C28.0995 23.7463 28.3224 23.9912 30.32 21.3776C31.5359 19.7863 32.0213 18.8154 31.8703 18.4003C31.7251 18.0028 30.8304 18.107 30.8304 18.107L27.8531 18.126C27.8531 18.126 27.6331 18.0967 27.4688 18.192C27.309 18.2859 27.2048 18.5059 27.2048 18.5059C27.2048 18.5059 26.7355 19.7379 26.1063 20.7851C24.7804 22.9939 24.2509 23.1112 24.0339 22.9734C23.5293 22.6536 23.6555 21.6886 23.6555 21.0036C23.6555 18.8623 23.9869 17.9676 23.0116 17.7374C22.6889 17.6611 22.4499 17.6112 21.6227 17.6024C20.5593 17.5907 19.6603 17.6054 19.1514 17.8503C18.814 18.0116 18.55 18.3754 18.7113 18.3974C18.9079 18.4223 19.3537 18.5147 19.5899 18.83C19.8949 19.2378 19.8832 20.153 19.8832 20.153C19.8832 20.153 20.0592 22.6727 19.474 22.9866C19.0736 23.2007 18.5236 22.7622 17.3415 20.7572C16.9404 20.061 16.5853 19.3393 16.2781 18.5968C16.2781 18.5968 16.1902 18.3842 16.0318 18.2698C15.8411 18.1319 15.5756 18.0894 15.5756 18.0894L12.7464 18.107C12.7464 18.107 12.3211 18.1187 12.1656 18.3006C12.0277 18.4619 12.1553 18.7948 12.1553 18.7948C12.1553 18.7948 14.37 23.8812 16.878 26.445C19.1777 28.7946 21.7884 28.6406 21.7884 28.6406H22.972Z" fill="#E7CF87"/>
</g>
<defs>
<clipPath id="clip0_43_732">
<rect width="44" height="44" fill="white"/>
</clipPath>
</defs>
</svg>
