<svg width="210" height="38" viewBox="0 0 210 38" fill="none" xmlns="http://www.w3.org/2000/svg">
<path d="M0.584717 19.7187V0.332337H3.12534V18.1955H13.2041V19.7187H0.584717Z" fill="#E7CF87"/>
<path d="M17.3797 0.332337H29.9991V1.85556H19.9203V8.80697H28.5752V10.0809H19.9203V18.1955H29.9991V19.7187H17.3797V0.332337Z" fill="#494947"/>
<path d="M33.0579 18.5279C33.0579 18.1217 33.2068 17.7709 33.5046 17.4755C33.8024 17.18 34.1561 17.0323 34.5656 17.0323C34.975 17.0323 35.3287 17.18 35.6265 17.4755C35.9243 17.7709 36.0732 18.1217 36.0732 18.5279C36.0732 18.9341 35.9243 19.2849 35.6265 19.5803C35.3287 19.8757 34.975 20.0234 34.5656 20.0234C34.1561 20.0234 33.8024 19.8757 33.5046 19.5803C33.2068 19.2849 33.0579 18.9341 33.0579 18.5279Z" fill="#494947"/>
<path d="M41.6452 19.7187V0.332337H48.6249C49.5928 0.332337 50.4303 0.480044 51.1376 0.775456C51.8635 1.0524 52.4498 1.41244 52.8965 1.85556C53.3618 2.29867 53.7062 2.78795 53.9295 3.32338C54.1529 3.85882 54.2645 4.38502 54.2645 4.90199C54.2645 5.49281 54.1343 6.05594 53.8737 6.59138C53.6131 7.10835 53.2595 7.56993 52.8128 7.97612C52.3847 8.36385 51.8821 8.68695 51.3051 8.94544C50.7281 9.18546 50.1139 9.30547 49.4625 9.30547V9.41625C49.872 9.43472 50.4117 9.49934 51.0818 9.61012C51.7518 9.7209 52.4033 9.94246 53.0361 10.2748C53.6689 10.6071 54.2087 11.0872 54.6554 11.7149C55.1207 12.3427 55.3534 13.1828 55.3534 14.2352C55.3534 14.8998 55.2324 15.5645 54.9904 16.2292C54.7671 16.8754 54.3948 17.457 53.8737 17.974C53.3525 18.4909 52.6639 18.9156 51.8077 19.2479C50.9515 19.5618 49.8999 19.7187 48.6528 19.7187H41.6452ZM44.1858 18.5002H48.2341C48.8297 18.5002 49.388 18.4171 49.9092 18.2509C50.449 18.0663 50.9143 17.7986 51.3051 17.4478C51.696 17.097 52.0031 16.6723 52.2265 16.1738C52.4684 15.6753 52.5894 15.1029 52.5894 14.4567C52.5894 13.8659 52.4777 13.3028 52.2544 12.7673C52.0496 12.2319 51.7239 11.7611 51.2772 11.3549C50.8491 10.9487 50.3001 10.6256 49.63 10.3856C48.9599 10.1456 48.1689 10.0255 47.2569 10.0255H44.1858V18.5002ZM44.1858 8.80697H47.5361C48.0945 8.80697 48.6156 8.71465 49.0995 8.53002C49.6021 8.34538 50.0395 8.0869 50.4117 7.75456C50.8026 7.42222 51.1004 7.02526 51.3051 6.56368C51.5285 6.1021 51.6402 5.60359 51.6402 5.06816C51.6402 4.6435 51.5657 4.21885 51.4168 3.7942C51.2679 3.36954 51.0259 2.99104 50.6909 2.65871C50.3745 2.32637 49.9557 2.05865 49.4346 1.85556C48.932 1.65246 48.3178 1.55091 47.5919 1.55091H44.1858V8.80697Z" fill="#E7CF87"/>
<path d="M70.9638 14.0136H61.3317L58.8749 19.7187H57.5906L65.8546 0.332337H67.2506L76.3521 19.7187H73.644L70.9638 14.0136ZM70.3775 12.7673L65.9942 3.43416H65.8825L61.8622 12.7673H70.3775Z" fill="#494947"/>
<path d="M80.5518 0.332337H86.8894C88.1364 0.332337 89.1694 0.507738 89.9883 0.85854C90.8073 1.19088 91.4494 1.61553 91.9148 2.1325C92.3987 2.63101 92.7337 3.17568 92.9198 3.7665C93.1246 4.35732 93.227 4.90199 93.227 5.4005C93.227 5.9544 93.1339 6.52676 92.9478 7.11758C92.7616 7.68994 92.4638 8.22537 92.0544 8.72388C91.6449 9.22239 91.1144 9.63781 90.463 9.97015C89.8301 10.3025 89.067 10.4964 88.1736 10.5517V10.6625L88.4528 10.801C88.6762 10.9118 88.8623 11.0502 89.0112 11.2164C89.1787 11.3826 89.3834 11.6503 89.6254 12.0196C89.886 12.3888 90.2303 12.915 90.6584 13.5982C91.0865 14.2629 91.6914 15.1583 92.4731 16.2846C92.7337 16.6723 92.985 17.0231 93.227 17.337C93.4689 17.6324 93.7202 17.8909 93.9808 18.1124C94.2413 18.3155 94.5205 18.4725 94.8183 18.5833C95.1161 18.694 95.4605 18.7494 95.8513 18.7494C95.9444 18.7494 96.0375 18.7494 96.1305 18.7494C96.2236 18.731 96.3166 18.7125 96.4097 18.694V19.7187C96.1491 19.8664 95.8885 19.9588 95.628 19.9957C95.3674 20.0326 95.0324 20.0511 94.6229 20.0511C94.0645 20.0511 93.5806 19.9772 93.1711 19.8295C92.7803 19.6818 92.4266 19.488 92.1102 19.2479C91.7938 18.9894 91.496 18.6848 91.2168 18.334C90.9562 17.9832 90.6863 17.5955 90.4071 17.1708L88.2015 13.9305C87.8665 13.4135 87.578 12.9797 87.3361 12.6289C87.0941 12.2781 86.8335 11.9919 86.5543 11.7703C86.2751 11.5488 85.9587 11.3918 85.6051 11.2995C85.2701 11.2072 84.842 11.161 84.3208 11.161H83.0924V19.7187H80.5518V0.332337ZM83.0924 1.55091V9.91476H85.968C86.7125 9.91476 87.364 9.78552 87.9223 9.52703C88.4993 9.26855 88.9833 8.93621 89.3741 8.53002C89.765 8.10536 90.0535 7.64378 90.2396 7.14527C90.4444 6.6283 90.5467 6.12056 90.5467 5.62206C90.5467 5.03123 90.4351 4.48657 90.2117 3.98806C90.007 3.48955 89.6999 3.0649 89.2904 2.7141C88.8809 2.34483 88.3877 2.05865 87.8107 1.85556C87.2523 1.65246 86.6195 1.55091 85.9122 1.55091H83.0924Z" fill="#494947"/>
<path d="M99.4745 18.5279C99.4745 18.1217 99.6234 17.7709 99.9212 17.4755C100.219 17.18 100.573 17.0323 100.982 17.0323C101.392 17.0323 101.745 17.18 102.043 17.4755C102.341 17.7709 102.49 18.1217 102.49 18.5279C102.49 18.9341 102.341 19.2849 102.043 19.5803C101.745 19.8757 101.392 20.0234 100.982 20.0234C100.573 20.0234 100.219 19.8757 99.9212 19.5803C99.6234 19.2849 99.4745 18.9341 99.4745 18.5279Z" fill="#494947"/>
<path d="M124.506 16.1461L125.344 16.8939C125.102 17.1708 124.748 17.4939 124.283 17.8632C123.817 18.2325 123.231 18.5833 122.524 18.9156C121.835 19.2295 121.016 19.4972 120.067 19.7187C119.136 19.9403 118.075 20.0511 116.884 20.0511C115.004 20.0511 113.385 19.7649 112.026 19.1925C110.667 18.6017 109.551 17.8355 108.676 16.8939C107.801 15.9338 107.15 14.8444 106.722 13.6259C106.312 12.3888 106.107 11.1241 106.107 9.83168C106.107 8.33615 106.368 6.98834 106.889 5.78823C107.41 4.56965 108.145 3.53571 109.095 2.6864C110.044 1.81863 111.179 1.15395 112.501 0.692371C113.841 0.23079 115.321 0 116.94 0C118.057 0 119.052 0.110779 119.927 0.332337C120.802 0.553897 121.565 0.85854 122.217 1.24627C122.868 1.634 123.408 2.09558 123.836 2.63101C124.283 3.16645 124.646 3.74804 124.925 4.37579H122.859C122.728 3.98806 122.496 3.60956 122.161 3.2403C121.844 2.85257 121.426 2.511 120.904 2.21559C120.402 1.92018 119.816 1.68015 119.146 1.49552C118.494 1.31089 117.768 1.21857 116.968 1.21857C115.795 1.21857 114.706 1.4309 113.701 1.85556C112.715 2.28021 111.859 2.87103 111.133 3.62803C110.407 4.38502 109.839 5.28972 109.43 6.34212C109.039 7.37606 108.843 8.52079 108.843 9.77629C108.843 10.9579 109.03 12.0934 109.402 13.1828C109.793 14.2721 110.36 15.2322 111.105 16.063C111.849 16.8939 112.78 17.5585 113.897 18.0571C115.014 18.5556 116.298 18.8048 117.75 18.8048C120.355 18.8048 122.607 17.9186 124.506 16.1461Z" fill="#E7CF87"/>
<path d="M129.246 19.7187V0.332337H131.787V18.1955H141.866V19.7187H129.246Z" fill="#494947"/>
<path d="M147.158 0.332337H149.699V19.7187H147.158V0.332337Z" fill="#494947"/>
<path d="M173.266 0.332337H174.55V20.0511H174.411L158.916 4.90199H158.804V19.7187H157.52V0H157.659L173.154 15.1491H173.266V0.332337Z" fill="#494947"/>
<path d="M182.357 0.332337H184.897V19.7187H182.357V0.332337Z" fill="#494947"/>
<path d="M209.163 16.1461L210 16.8939C209.758 17.1708 209.404 17.4939 208.939 17.8632C208.474 18.2325 207.888 18.5833 207.18 18.9156C206.492 19.2295 205.673 19.4972 204.723 19.7187C203.793 19.9403 202.732 20.0511 201.541 20.0511C199.661 20.0511 198.041 19.7649 196.683 19.1925C195.324 18.6017 194.207 17.8355 193.332 16.8939C192.458 15.9338 191.806 14.8444 191.378 13.6259C190.969 12.3888 190.764 11.1241 190.764 9.83168C190.764 8.33615 191.025 6.98834 191.546 5.78823C192.067 4.56965 192.802 3.53571 193.751 2.6864C194.701 1.81863 195.836 1.15395 197.157 0.692371C198.497 0.23079 199.977 0 201.596 0C202.713 0 203.709 0.110779 204.584 0.332337C205.459 0.553897 206.222 0.85854 206.873 1.24627C207.525 1.634 208.064 2.09558 208.492 2.63101C208.939 3.16645 209.302 3.74804 209.581 4.37579H207.515C207.385 3.98806 207.152 3.60956 206.817 3.2403C206.501 2.85257 206.082 2.511 205.561 2.21559C205.058 1.92018 204.472 1.68015 203.802 1.49552C203.151 1.31089 202.425 1.21857 201.624 1.21857C200.452 1.21857 199.363 1.4309 198.358 1.85556C197.371 2.28021 196.515 2.87103 195.789 3.62803C195.063 4.38502 194.496 5.28972 194.086 6.34212C193.695 7.37606 193.5 8.52079 193.5 9.77629C193.5 10.9579 193.686 12.0934 194.058 13.1828C194.449 14.2721 195.017 15.2322 195.761 16.063C196.506 16.8939 197.437 17.5585 198.553 18.0571C199.67 18.5556 200.954 18.8048 202.406 18.8048C205.012 18.8048 207.264 17.9186 209.163 16.1461Z" fill="#494947"/>
<path d="M3.47112 31.1643L1.00709 37.8936H0L2.83722 30.5101H3.48646L3.47112 31.1643ZM5.53642 37.8936L3.06727 31.1643L3.05193 30.5101H3.70117L6.54861 37.8936H5.53642ZM5.40861 35.1603V35.9615H1.22691V35.1603H5.40861Z" fill="#494947"/>
<path d="M11.1083 30.5101V37.8936H10.1216V30.5101H11.1083ZM15.6938 30.5101L12.463 34.572H10.7146L10.5613 33.7607H11.8751L14.472 30.5101H15.6938ZM14.7021 37.8936L11.9058 34.4453L12.4579 33.5883L15.9085 37.8936H14.7021Z" fill="#494947"/>
<path d="M22.0836 30.5101V37.8936H21.1123V30.5101H22.0836ZM24.4761 30.5101V31.3113H18.725V30.5101H24.4761Z" fill="#494947"/>
<path d="M30.416 35.4443L32.3842 30.5101H33.5191L30.8864 36.6613C30.8114 36.8338 30.7279 37.0011 30.6359 37.1634C30.5438 37.3223 30.4314 37.4643 30.2985 37.5893C30.1655 37.7144 30.0002 37.8142 29.8026 37.8885C29.6083 37.9629 29.3663 38.0001 29.0767 38.0001C28.9949 38.0001 28.8977 37.995 28.7853 37.9849C28.6728 37.9781 28.5995 37.9697 28.5655 37.9595L28.5961 37.1786C28.6336 37.1853 28.7069 37.1921 28.8159 37.1989C28.925 37.2022 29.0051 37.2039 29.0562 37.2039C29.2505 37.2039 29.4038 37.1651 29.5163 37.0873C29.6288 37.0095 29.7191 36.9115 29.7872 36.7932C29.8588 36.6715 29.9236 36.5481 29.9815 36.423L30.416 35.4443ZM28.7444 30.5101L30.8148 35.1096L31.0602 36.0173L30.232 36.0782L27.6402 30.5101H28.7444Z" fill="#494947"/>
<path d="M39.5101 31.1643L37.0461 37.8936H36.039L38.8762 30.5101H39.5255L39.5101 31.1643ZM41.5754 37.8936L39.1063 31.1643L39.0909 30.5101H39.7402L42.5876 37.8936H41.5754ZM41.4476 35.1603V35.9615H37.2659V35.1603H41.4476Z" fill="#494947"/>
<path d="M50.9916 30.5101V31.3113H47.5869V30.5101H50.9916ZM51.8402 30.5101V37.8936H50.8536V30.5101H51.8402ZM47.2495 30.5101H48.2311L48.0624 34.1258C48.0385 34.6464 47.9976 35.1113 47.9397 35.5203C47.8851 35.926 47.8068 36.2793 47.7045 36.5802C47.6023 36.8777 47.4694 37.1245 47.3058 37.3206C47.1422 37.5133 46.9411 37.657 46.7025 37.7516C46.4674 37.8463 46.1845 37.8936 45.8539 37.8936H45.5881V37.0974L45.7926 37.0822C45.9834 37.0687 46.147 37.0265 46.2833 36.9555C46.4231 36.8811 46.5407 36.7695 46.6361 36.6208C46.7349 36.472 46.815 36.2793 46.8764 36.0427C46.9377 35.806 46.9854 35.517 47.0195 35.1755C47.057 34.8307 47.0859 34.4284 47.1064 33.9686L47.2495 30.5101Z" fill="#494947"/>
<path d="M56.8702 33.5173H58.8997C59.445 33.5173 59.9051 33.6085 60.28 33.7911C60.6549 33.9703 60.9394 34.2221 61.1337 34.5467C61.3279 34.8712 61.4251 35.2516 61.4251 35.6877C61.4251 36.0122 61.3705 36.3097 61.2615 36.5802C61.1524 36.8473 60.9905 37.0805 60.7758 37.28C60.5611 37.4761 60.297 37.6282 59.9835 37.7364C59.6699 37.8412 59.3087 37.8936 58.8997 37.8936H56.1187V30.5101H57.1053V37.0974H58.8997C59.2644 37.0974 59.5592 37.0315 59.7841 36.8997C60.0124 36.7644 60.1794 36.5886 60.2851 36.3723C60.3907 36.1559 60.4436 35.9243 60.4436 35.6775C60.4436 35.4308 60.3907 35.2042 60.2851 34.998C60.1794 34.7918 60.0124 34.6278 59.7841 34.5061C59.5592 34.381 59.2644 34.3185 58.8997 34.3185H56.8702V33.5173Z" fill="#494947"/>
<path d="M70.1153 33.6846V34.4808H66.087V33.6846H70.1153ZM66.2403 30.5101V37.8936H65.2537V30.5101H66.2403ZM70.9742 30.5101V37.8936H69.9926V30.5101H70.9742Z" fill="#494947"/>
<path d="M78.1052 31.1643L75.6412 37.8936H74.6341L77.4713 30.5101H78.1205L78.1052 31.1643ZM80.1705 37.8936L77.7013 31.1643L77.686 30.5101H78.3353L81.1827 37.8936H80.1705ZM80.0427 35.1603V35.9615H75.861V35.1603H80.0427Z" fill="#494947"/>
<path d="M88.8403 35.0183H86.7495L86.2638 34.8205C85.7253 34.6515 85.3112 34.3929 85.0216 34.0447C84.7319 33.6931 84.587 33.2569 84.587 32.7363C84.587 32.2596 84.6927 31.8556 84.904 31.5243C85.1187 31.193 85.422 30.9412 85.8139 30.7687C86.2093 30.5963 86.6762 30.5101 87.2146 30.5101H89.5969V37.8936H88.6103V31.3113H87.2146C86.6694 31.3113 86.2587 31.4398 85.9826 31.6967C85.71 31.9537 85.5737 32.3002 85.5737 32.7363C85.5737 33.0203 85.6333 33.2739 85.7526 33.497C85.8753 33.7201 86.0559 33.8959 86.2945 34.0244C86.533 34.1528 86.8295 34.2171 87.184 34.2171H88.8454L88.8403 35.0183ZM87.1635 34.5112L85.3538 37.8936H84.3059L86.1667 34.5112H87.1635Z" fill="#494947"/>
<path d="M100.066 30.5101V37.8936H99.0792V30.5101H100.066ZM104.651 30.5101L101.421 34.572H99.6722L99.5188 33.7607H100.833L103.43 30.5101H104.651ZM103.66 37.8936L100.863 34.4453L101.415 33.5883L104.866 37.8936H103.66Z" fill="#494947"/>
<path d="M113.858 33.9686V34.4351C113.858 34.9896 113.788 35.4865 113.648 35.926C113.509 36.3655 113.308 36.7391 113.045 37.0467C112.783 37.3544 112.467 37.5893 112.099 37.7516C111.735 37.9139 111.326 37.995 110.872 37.995C110.433 37.995 110.029 37.9139 109.661 37.7516C109.296 37.5893 108.979 37.3544 108.71 37.0467C108.444 36.7391 108.238 36.3655 108.091 35.926C107.945 35.4865 107.872 34.9896 107.872 34.4351V33.9686C107.872 33.4142 107.943 32.9189 108.086 32.4828C108.233 32.0433 108.439 31.6697 108.705 31.3621C108.971 31.051 109.286 30.8144 109.651 30.6521C110.019 30.4898 110.423 30.4087 110.862 30.4087C111.316 30.4087 111.724 30.4898 112.089 30.6521C112.457 30.8144 112.772 31.051 113.035 31.3621C113.301 31.6697 113.504 32.0433 113.643 32.4828C113.786 32.9189 113.858 33.4142 113.858 33.9686ZM112.882 34.4351V33.9584C112.882 33.519 112.836 33.1302 112.744 32.7921C112.655 32.454 112.524 32.17 112.35 31.9402C112.176 31.7103 111.963 31.5362 111.711 31.4178C111.462 31.2995 111.179 31.2403 110.862 31.2403C110.556 31.2403 110.278 31.2995 110.029 31.4178C109.784 31.5362 109.572 31.7103 109.395 31.9402C109.221 32.17 109.087 32.454 108.991 32.7921C108.896 33.1302 108.848 33.519 108.848 33.9584V34.4351C108.848 34.878 108.896 35.2702 108.991 35.6116C109.087 35.9497 109.223 36.2354 109.4 36.4686C109.581 36.6985 109.794 36.8726 110.039 36.991C110.288 37.1093 110.566 37.1684 110.872 37.1684C111.193 37.1684 111.477 37.1093 111.726 36.991C111.975 36.8726 112.185 36.6985 112.355 36.4686C112.529 36.2354 112.66 35.9497 112.749 35.6116C112.837 35.2702 112.882 34.878 112.882 34.4351Z" fill="#494947"/>
<path d="M122.359 35.5457H123.341C123.289 36.0122 123.155 36.4298 122.937 36.7983C122.719 37.1668 122.41 37.4592 122.011 37.6755C121.613 37.8885 121.115 37.995 120.519 37.995C120.082 37.995 119.685 37.9139 119.328 37.7516C118.973 37.5893 118.668 37.3595 118.412 37.0619C118.157 36.7611 117.959 36.401 117.819 35.9818C117.683 35.5592 117.615 35.0893 117.615 34.572V33.8367C117.615 33.3195 117.683 32.8513 117.819 32.4321C117.959 32.0095 118.159 31.6477 118.418 31.3468C118.68 31.046 118.995 30.8144 119.363 30.6521C119.731 30.4898 120.146 30.4087 120.606 30.4087C121.168 30.4087 121.643 30.5135 122.032 30.7231C122.42 30.9327 122.722 31.2234 122.937 31.5953C123.155 31.9638 123.289 32.3915 123.341 32.8783H122.359C122.311 32.5335 122.223 32.2377 122.093 31.9909C121.964 31.7407 121.78 31.548 121.541 31.4128C121.303 31.2775 120.991 31.2099 120.606 31.2099C120.275 31.2099 119.984 31.2725 119.731 31.3976C119.483 31.5226 119.273 31.7001 119.103 31.93C118.936 32.1599 118.81 32.4354 118.724 32.7566C118.639 33.0778 118.597 33.4344 118.597 33.8266V34.572C118.597 34.9338 118.634 35.2735 118.709 35.5913C118.787 35.9091 118.905 36.188 119.062 36.4281C119.218 36.6681 119.418 36.8574 119.66 36.996C119.902 37.1313 120.188 37.1989 120.519 37.1989C120.938 37.1989 121.272 37.1329 121.521 37.0011C121.769 36.8692 121.957 36.6799 122.083 36.4331C122.213 36.1863 122.305 35.8905 122.359 35.5457Z" fill="#494947"/>
<path d="M127.527 30.5101H128.483L130.921 36.5295L133.355 30.5101H134.316L131.29 37.8936H130.543L127.527 30.5101ZM127.215 30.5101H128.059L128.197 35.0132V37.8936H127.215V30.5101ZM133.779 30.5101H134.623V37.8936H133.641V35.0132L133.779 30.5101Z" fill="#494947"/>
<path d="M143.615 37.0974V37.8936H139.673V37.0974H143.615ZM139.872 30.5101V37.8936H138.886V30.5101H139.872ZM143.093 33.6846V34.4808H139.673V33.6846H143.093ZM143.563 30.5101V31.3113H139.673V30.5101H143.563Z" fill="#494947"/>
<path d="M150.219 30.5101V37.8936H149.248V30.5101H150.219ZM152.611 30.5101V31.3113H146.86V30.5101H152.611Z" fill="#494947"/>
<path d="M161.833 33.9686V34.4351C161.833 34.9896 161.764 35.4865 161.624 35.926C161.484 36.3655 161.283 36.7391 161.021 37.0467C160.758 37.3544 160.443 37.5893 160.075 37.7516C159.71 37.9139 159.301 37.995 158.848 37.995C158.408 37.995 158.004 37.9139 157.636 37.7516C157.272 37.5893 156.955 37.3544 156.686 37.0467C156.42 36.7391 156.213 36.3655 156.067 35.926C155.92 35.4865 155.847 34.9896 155.847 34.4351V33.9686C155.847 33.4142 155.919 32.9189 156.062 32.4828C156.208 32.0433 156.415 31.6697 156.68 31.3621C156.946 31.051 157.261 30.8144 157.626 30.6521C157.994 30.4898 158.398 30.4087 158.838 30.4087C159.291 30.4087 159.7 30.4898 160.065 30.6521C160.433 30.8144 160.748 31.051 161.01 31.3621C161.276 31.6697 161.479 32.0433 161.619 32.4828C161.762 32.9189 161.833 33.4142 161.833 33.9686ZM160.857 34.4351V33.9584C160.857 33.519 160.811 33.1302 160.719 32.7921C160.63 32.454 160.499 32.17 160.325 31.9402C160.152 31.7103 159.939 31.5362 159.686 31.4178C159.438 31.2995 159.155 31.2403 158.838 31.2403C158.531 31.2403 158.253 31.2995 158.004 31.4178C157.759 31.5362 157.548 31.7103 157.371 31.9402C157.197 32.17 157.062 32.454 156.967 32.7921C156.871 33.1302 156.824 33.519 156.824 33.9584V34.4351C156.824 34.878 156.871 35.2702 156.967 35.6116C157.062 35.9497 157.198 36.2354 157.376 36.4686C157.556 36.6985 157.769 36.8726 158.015 36.991C158.263 37.1093 158.541 37.1684 158.848 37.1684C159.168 37.1684 159.453 37.1093 159.702 36.991C159.95 36.8726 160.16 36.6985 160.33 36.4686C160.504 36.2354 160.635 35.9497 160.724 35.6116C160.813 35.2702 160.857 34.878 160.857 34.4351Z" fill="#494947"/>
<path d="M170.462 30.5101V31.3113H167.058V30.5101H170.462ZM171.311 30.5101V37.8936H170.324V30.5101H171.311ZM166.72 30.5101H167.702L167.533 34.1258C167.509 34.6464 167.468 35.1113 167.41 35.5203C167.356 35.926 167.277 36.2793 167.175 36.5802C167.073 36.8777 166.94 37.1245 166.776 37.3206C166.613 37.5133 166.412 37.657 166.173 37.7516C165.938 37.8463 165.655 37.8936 165.325 37.8936H165.059V37.0974L165.263 37.0822C165.454 37.0687 165.618 37.0265 165.754 36.9555C165.894 36.8811 166.011 36.7695 166.107 36.6208C166.206 36.472 166.286 36.2793 166.347 36.0427C166.408 35.806 166.456 35.517 166.49 35.1755C166.528 34.8307 166.557 34.4284 166.577 33.9686L166.72 30.5101Z" fill="#494947"/>
<path d="M181.351 33.9686V34.4351C181.351 34.9896 181.281 35.4865 181.141 35.926C181.001 36.3655 180.8 36.7391 180.538 37.0467C180.276 37.3544 179.96 37.5893 179.592 37.7516C179.228 37.9139 178.819 37.995 178.365 37.995C177.926 37.995 177.522 37.9139 177.154 37.7516C176.789 37.5893 176.472 37.3544 176.203 37.0467C175.937 36.7391 175.731 36.3655 175.584 35.926C175.438 35.4865 175.364 34.9896 175.364 34.4351V33.9686C175.364 33.4142 175.436 32.9189 175.579 32.4828C175.726 32.0433 175.932 31.6697 176.198 31.3621C176.464 31.051 176.779 30.8144 177.143 30.6521C177.512 30.4898 177.915 30.4087 178.355 30.4087C178.808 30.4087 179.217 30.4898 179.582 30.6521C179.95 30.8144 180.265 31.051 180.528 31.3621C180.794 31.6697 180.996 32.0433 181.136 32.4828C181.279 32.9189 181.351 33.4142 181.351 33.9686ZM180.374 34.4351V33.9584C180.374 33.519 180.328 33.1302 180.236 32.7921C180.148 32.454 180.017 32.17 179.843 31.9402C179.669 31.7103 179.456 31.5362 179.204 31.4178C178.955 31.2995 178.672 31.2403 178.355 31.2403C178.048 31.2403 177.771 31.2995 177.522 31.4178C177.276 31.5362 177.065 31.7103 176.888 31.9402C176.714 32.17 176.579 32.454 176.484 32.7921C176.389 33.1302 176.341 33.519 176.341 33.9584V34.4351C176.341 34.878 176.389 35.2702 176.484 35.6116C176.579 35.9497 176.716 36.2354 176.893 36.4686C177.074 36.6985 177.287 36.8726 177.532 36.991C177.781 37.1093 178.059 37.1684 178.365 37.1684C178.686 37.1684 178.97 37.1093 179.219 36.991C179.468 36.8726 179.677 36.6985 179.848 36.4686C180.022 36.2354 180.153 35.9497 180.241 35.6116C180.33 35.2702 180.374 34.878 180.374 34.4351Z" fill="#494947"/>
<path d="M189.975 30.5101V31.3113H186.386V37.8936H185.404V30.5101H189.975Z" fill="#494947"/>
<path d="M194.744 36.1999L198.409 30.5101H199.396V37.8936H198.409V32.1988L194.744 37.8936H193.762V30.5101H194.744V36.1999Z" fill="#494947"/>
<path d="M207.851 35.0183H205.76L205.274 34.8205C204.736 34.6515 204.322 34.3929 204.032 34.0447C203.742 33.6931 203.598 33.2569 203.598 32.7363C203.598 32.2596 203.703 31.8556 203.915 31.5243C204.129 31.193 204.433 30.9412 204.825 30.7687C205.22 30.5963 205.687 30.5101 206.225 30.5101H208.608V37.8936H207.621V31.3113H206.225C205.68 31.3113 205.269 31.4398 204.993 31.6967C204.721 31.9537 204.584 32.3002 204.584 32.7363C204.584 33.0203 204.644 33.2739 204.763 33.497C204.886 33.7201 205.067 33.8959 205.305 34.0244C205.544 34.1528 205.84 34.2171 206.195 34.2171H207.856L207.851 35.0183ZM206.174 34.5112L204.364 37.8936H203.316L205.177 34.5112H206.174Z" fill="#494947"/>
</svg>
